<svg width="18" height="18" viewBox="0 0 18 18" fill="none" xmlns="http://www.w3.org/2000/svg">
<path d="M16.2 16.1696V6.22332L9 1.8304L1.8 6.22332V16.1696H5.4V13.6528C5.4 12.6819 5.77928 11.7508 6.45442 11.0643C7.12955 10.3778 8.04522 9.99208 9 9.99208C9.95478 9.99208 10.8705 10.3778 11.5456 11.0643C12.2207 11.7508 12.6 12.6819 12.6 13.6528V16.1696H16.2ZM10.8 18V13.6528C10.8 13.1674 10.6104 12.7018 10.2728 12.3586C9.93523 12.0153 9.47739 11.8225 9 11.8225C8.52261 11.8225 8.06477 12.0153 7.72721 12.3586C7.38964 12.7018 7.2 13.1674 7.2 13.6528V18H1.8C1.32261 18 0.864773 17.8072 0.527208 17.4639C0.189642 17.1206 0 16.6551 0 16.1696V6.22332C-2.99047e-06 5.90724 0.0804876 5.59654 0.233634 5.32149C0.38678 5.04643 0.607362 4.81639 0.8739 4.65377L8.0739 0.260847C8.35365 0.0901623 8.67376 0 9 0C9.32624 0 9.64635 0.0901623 9.9261 0.260847L17.1261 4.65377C17.3926 4.81639 17.6132 5.04643 17.7664 5.32149C17.9195 5.59654 18 5.90724 18 6.22332V16.1696C18 16.6551 17.8104 17.1206 17.4728 17.4639C17.1352 17.8072 16.6774 18 16.2 18H10.8Z" fill="white"/>
</svg>
