<svg width="45" height="34" viewBox="0 0 45 34" fill="none" xmlns="http://www.w3.org/2000/svg">
<path d="M40.2147 9.25973C40.3533 8.63602 40.1454 8.01232 39.7296 7.59651C36.4032 3.64639 31.7601 0.943668 26.7012 0.0427615C26.0774 -0.0958394 25.523 0.112062 25.0379 0.527865C24.5528 0.943668 24.2756 1.49807 24.2756 2.12178V8.15092C24.2756 9.12113 24.8993 9.88343 25.8002 10.1606C27.9486 10.715 29.889 11.8238 31.4136 13.4178C31.8294 13.8336 32.3145 14.0415 32.8689 14.0415C33.2154 14.0415 33.5619 13.9722 33.9084 13.7643L39.1059 10.715C39.7296 10.4378 40.1454 9.88343 40.2147 9.25973Z" fill="white"/>
<path d="M29.9582 14.6652C29.7503 14.4573 29.4731 14.388 29.1959 14.5266C27.1862 15.2889 20.6027 17.9223 19.7018 18.8232C18.0385 20.4864 18.0385 23.2585 19.7018 24.9217C21.365 26.5849 24.137 26.5849 25.8002 24.9217C26.7011 24.0208 29.3345 17.4372 30.0968 15.4275C30.2354 15.1503 30.1661 14.8731 29.9582 14.6652ZM23.5133 22.5655C23.1668 22.912 22.5431 22.912 22.1966 22.5655C21.8501 22.219 21.8501 21.5953 22.1966 21.2488C22.5431 20.9023 23.1668 20.9023 23.5133 21.2488C23.8598 21.5953 23.8598 22.1497 23.5133 22.5655Z" fill="white"/>
<path d="M21.3649 8.15095V2.12181C21.3649 1.49811 21.0877 0.943703 20.6026 0.5279C20.1175 0.112097 19.4938 -0.0265038 18.9394 0.0427967C13.8805 0.943703 9.23735 3.64642 5.91092 7.59655C5.49512 8.08165 5.28722 8.70536 5.42582 9.25976C5.56442 9.88346 5.91092 10.3686 6.46532 10.7151L11.6629 13.7643C12.0094 13.9722 12.3559 14.0415 12.7024 14.0415C13.2568 14.0415 13.7419 13.8336 14.1577 13.4178C15.6823 11.8239 17.692 10.7151 19.771 10.1607C20.7412 9.95277 21.3649 9.12116 21.3649 8.15095Z" fill="white"/>
<path d="M43.6797 14.3186C43.4718 13.7642 43.056 13.2791 42.4323 13.0712C41.8779 12.8633 41.1849 12.9326 40.6998 13.2098L35.4329 16.3283C34.6013 16.8134 34.1855 17.7836 34.4627 18.6845C35.0864 20.7635 35.0864 23.0505 34.4627 25.1988C34.1855 26.0997 34.6013 27.0699 35.4329 27.555L40.6305 30.6042C41.1849 30.8814 41.8086 30.9507 42.363 30.7428C42.9174 30.5349 43.4025 30.0498 43.6104 29.4954C45.4122 24.5751 45.4122 19.2389 43.6797 14.3186Z" fill="white"/>
<path d="M10.2076 16.3285L4.94078 13.2793C4.38637 13.0021 3.76267 12.9328 3.20826 13.1407C2.65386 13.3486 2.16876 13.8337 1.96086 14.3881C0.159044 19.2391 0.159044 24.6445 1.96086 29.4956C2.16876 30.05 2.65386 30.5351 3.20826 30.743C3.76267 30.9509 4.45567 30.8816 4.94078 30.6044L10.2076 27.6245C11.0392 27.1394 11.455 26.1692 11.1778 25.2682C10.5541 23.1199 10.5541 20.9023 11.1778 18.754C11.3857 17.7145 10.9699 16.7443 10.2076 16.3285Z" fill="white"/>
<path d="M17.8307 28.7332C17.4149 28.7332 17.1377 29.0104 17.1377 29.4262C17.1377 29.842 17.4149 30.1192 17.8307 30.1192H27.8793C28.2951 30.1192 28.5723 29.842 28.5723 29.4262C28.5723 29.0104 28.2951 28.7332 27.8793 28.7332H17.8307Z" fill="white"/>
<path d="M30.1662 32.614H15.4745C15.0587 32.614 14.7815 32.8912 14.7815 33.307C14.7815 33.7228 15.0587 34 15.4745 34H30.1662C30.582 34 30.8592 33.7228 30.8592 33.307C30.8592 32.8912 30.5127 32.614 30.1662 32.614Z" fill="white"/>
</svg>
