<svg width="31" height="28" viewBox="0 0 31 28" fill="none" xmlns="http://www.w3.org/2000/svg">
<path d="M5.48572 22.4648C5.48572 22.4208 5.57357 22.3769 5.6175 22.2451C5.57357 22.333 5.52965 22.3769 5.48572 22.4648Z" fill="white"/>
<path d="M24.3306 10.0777C21.4753 8.84773 16.819 7.35419 16.5554 5.94851C16.1601 4.10356 19.235 3.31287 20.5089 3.00537C23.6278 2.17075 26.3073 1.81933 29.6898 0.984711C20.465 1.95111 12.602 2.21468 12.4263 6.12422C12.3384 8.36452 15.4133 9.98984 17.3022 11.0441C19.4547 12.2301 21.2557 13.2405 20.0696 14.4704C18.5322 16.0518 9.6149 16.8865 6.84747 16.9304C6.93533 17.2818 6.93533 17.6332 6.93533 17.9846C6.93533 19.3464 6.49605 20.6642 5.83714 21.8503C6.05678 21.8503 5.96892 21.8503 6.14463 21.8063C6.32034 21.8063 6.45212 21.8942 6.45212 22.0699C6.45212 22.2456 6.36427 22.3774 6.18856 22.3774C5.88107 22.4213 5.74929 22.4213 5.44179 22.4213C3.72862 25.1887 0.961191 27.2973 0.126569 27.8244L0.0826416 28.0001C0.609771 28.0001 17.0386 27.9562 27.6691 20.5324C31.5347 17.8089 31.5347 13.1526 24.3306 10.0777ZM24.9895 1.5997C25.2092 1.55577 25.4727 1.55577 25.6924 1.51184C25.7363 1.51184 25.7802 1.55577 25.7802 1.5997C25.7802 1.64362 25.7363 1.68755 25.6924 1.68755C25.4288 1.73148 25.2092 1.73148 24.9895 1.7754C24.9456 1.7754 24.9017 1.73148 24.9017 1.68755C24.9017 1.64362 24.9456 1.5997 24.9895 1.5997ZM22.0024 2.12682L22.1782 2.0829C22.266 2.0829 22.3539 2.03897 22.4417 2.03897C22.6174 1.99504 22.7931 1.99504 22.9689 1.95112C23.0567 1.95112 23.1006 1.99504 23.1006 2.03897C23.1006 2.12682 23.0567 2.17075 23.0128 2.17075C22.8371 2.21468 22.6614 2.21468 22.4856 2.25861C22.3978 2.25861 22.3099 2.30253 22.2221 2.30253L22.0464 2.34646C22.0464 2.34646 22.0464 2.34646 22.0024 2.34646C21.9585 2.34646 21.8707 2.30254 21.8707 2.25861C21.8707 2.21468 21.9146 2.12682 22.0024 2.12682ZM18.005 2.96145C18.049 2.96145 18.0929 2.91752 18.0929 2.91752C18.4883 2.78574 18.8836 2.65395 19.4107 2.5661C19.4986 2.52217 19.6304 2.61003 19.6304 2.69788C19.6743 2.78574 19.5864 2.91752 19.4986 2.91752C18.9715 3.00537 18.5761 3.13716 18.2247 3.26894C18.1808 3.26894 18.1808 3.31287 18.1368 3.31287C18.0929 3.31287 18.0929 3.31287 18.049 3.31287C17.9611 3.31287 17.9172 3.26894 17.8733 3.18108C17.8733 3.09323 17.9172 3.00537 18.005 2.96145ZM14.7544 5.81673C14.7105 5.81673 14.6666 5.81673 14.6226 5.7728C14.4909 5.68495 14.403 5.50924 14.4909 5.37746C14.8862 4.63069 15.2376 4.14749 15.8087 3.79607C15.9405 3.70821 16.1162 3.75214 16.204 3.88392C16.2919 4.01571 16.2479 4.19142 16.1162 4.27927C15.4133 4.76247 15.2815 5.15782 15.018 5.64102C14.9741 5.7728 14.8862 5.81673 14.7544 5.81673ZM16.7751 8.67202C16.7312 8.75987 16.6433 8.8038 16.5554 8.8038C16.5115 8.8038 16.4237 8.8038 16.3797 8.75987C15.5451 8.14489 15.4573 8.10096 15.1498 7.61776C15.0619 7.48597 15.1058 7.31027 15.2376 7.22241C15.3694 7.13456 15.5451 7.17848 15.633 7.31027C15.9405 7.74954 15.9844 7.70561 16.7312 8.3206C16.8629 8.36452 16.8629 8.54023 16.7751 8.67202ZM19.9818 10.7366C19.9379 10.8245 19.85 10.8684 19.7182 10.8684C19.6743 10.8684 19.6304 10.8684 19.5864 10.8245C18.9715 10.473 18.7079 10.2973 18.0929 9.90199C17.9611 9.81413 17.9172 9.63842 18.005 9.50664C18.0929 9.37486 18.2686 9.33093 18.4004 9.41878C19.0593 9.85806 19.3229 9.98984 19.8939 10.3413C20.0257 10.3852 20.0696 10.5609 19.9818 10.7366ZM21.036 11.3516C21.1239 11.2198 21.2996 11.1759 21.4314 11.2637C22.0464 11.6591 22.5296 11.9666 23.1006 12.3619C23.2324 12.4498 23.2763 12.6255 23.1885 12.7573C23.1446 12.8451 23.0567 12.8891 22.9249 12.8891C22.881 12.8891 22.7931 12.8891 22.7492 12.8451C22.1782 12.4498 21.7389 12.1423 21.08 11.7909C20.9921 11.6591 20.9482 11.4834 21.036 11.3516ZM10.0102 22.0699C9.17563 22.1577 8.38493 22.2456 7.72602 22.2895C7.72602 22.2895 7.72602 22.2895 7.68209 22.2895C7.55031 22.2895 7.41853 22.1577 7.3746 22.026C7.3746 21.8503 7.46246 21.7185 7.63817 21.7185C8.25315 21.6745 9.08777 21.5867 9.87847 21.4988C10.0542 21.4988 10.186 21.5867 10.186 21.7624C10.2738 21.8942 10.142 22.026 10.0102 22.0699ZM13.788 21.5867C13.0852 21.7185 12.3384 21.8063 11.5477 21.8942H11.5038C11.372 21.8942 11.2402 21.8063 11.1963 21.6306C11.1963 21.4549 11.2841 21.3231 11.4599 21.3231C12.2506 21.2353 12.9973 21.1035 13.7002 21.0156C13.8759 20.9717 14.0076 21.1035 14.0516 21.2792C14.0516 21.411 13.9198 21.5428 13.788 21.5867ZM17.4779 20.796C16.7751 20.9717 16.0283 21.1474 15.2376 21.3231H15.1937C15.0619 21.3231 14.9301 21.2353 14.8862 21.1035C14.8423 20.9278 14.9741 20.796 15.1058 20.7521C15.8526 20.6203 16.5994 20.4446 17.3022 20.2249C17.4779 20.181 17.6097 20.2689 17.6536 20.4446C17.7415 20.5764 17.6536 20.7521 17.4779 20.796ZM21.1239 19.4782C20.8603 19.61 20.5968 19.7417 20.2893 19.8296C19.85 20.0053 19.4107 20.1371 18.9715 20.3128C18.9275 20.3128 18.9275 20.3128 18.8836 20.3128C18.7518 20.3128 18.664 20.2249 18.62 20.0932C18.5761 19.9174 18.664 19.7857 18.7957 19.7417C19.235 19.61 19.6743 19.4342 20.1136 19.2585C20.3771 19.1707 20.6407 19.0389 20.9043 18.9071C21.036 18.8193 21.2118 18.9071 21.2996 19.0389C21.3435 19.2585 21.2557 19.4342 21.1239 19.4782ZM24.2427 17.15C24.111 17.2818 23.9792 17.4575 23.8474 17.5893C23.4081 17.9846 22.9689 18.38 22.4856 18.6875C22.4417 18.7314 22.3978 18.7314 22.3099 18.7314C22.2221 18.7314 22.1342 18.6875 22.0464 18.5996C21.9585 18.4678 22.0024 18.2921 22.1342 18.2043C22.5735 17.8968 23.0128 17.5454 23.4081 17.15C23.5399 17.0182 23.6717 16.8865 23.7595 16.7547C23.8474 16.6229 24.067 16.6229 24.1549 16.7107C24.3306 16.8425 24.3306 17.0182 24.2427 17.15ZM24.9895 15.7004C24.9456 15.8322 24.8577 15.92 24.682 15.92C24.6381 15.92 24.6381 15.92 24.5942 15.92C24.4185 15.8761 24.3306 15.7443 24.3745 15.5686C24.4185 15.4368 24.4185 15.3051 24.4185 15.1733C24.4185 15.1294 24.4185 15.0854 24.4185 15.0415C24.3745 14.6462 24.1988 14.2069 23.8035 13.7676C23.7156 13.6358 23.7156 13.4601 23.8474 13.3723C23.9792 13.2844 24.1549 13.2844 24.2427 13.4162C24.682 13.9872 24.9456 14.5144 24.9895 15.0415C24.9895 15.1294 24.9895 15.1733 24.9895 15.2611C25.0774 15.349 25.0334 15.5247 24.9895 15.7004Z" fill="white"/>
<path d="M5.6615 22.1579C5.70543 22.0701 5.79328 21.9383 5.83721 21.8944C5.79328 21.9822 5.70543 22.0701 5.6615 22.1579Z" fill="white"/>
</svg>
