<svg width="35" height="36" viewBox="0 0 35 36" fill="none" xmlns="http://www.w3.org/2000/svg">
<path d="M34.1504 12.4782C35.3489 15.9404 35.2157 19.8022 34.1504 23.1313C32.4193 28.4579 28.158 32.586 22.9646 34.1839C22.2988 34.4503 21.7661 34.5834 21.1003 34.7166V35.6487H13.9094V34.5834C11.7788 34.1839 9.91449 33.2518 8.05019 32.1865C3.5226 29.1237 0.726153 24.0635 0.32666 18.6037C0.32666 16.4731 0.592989 14.3425 1.25881 12.345L0.32666 11.8123L3.9221 5.55362L4.85425 6.08628C5.25374 5.68678 5.65323 5.15413 6.18589 4.75463C10.314 1.02603 15.9069 -0.438775 21.3666 0.759704C24.8289 1.55869 28.158 3.42299 30.555 6.08628L31.3539 5.68678C32.5524 7.81741 33.7509 9.94804 34.9494 12.0787L34.1504 12.4782ZM30.0223 12.6113C26.4269 15.9404 24.4294 17.5384 23.0978 19.0032C22.5651 18.0711 21.8993 17.0057 21.1003 15.6741C20.4345 14.3425 19.7686 13.144 19.3692 12.345C21.2335 12.0787 23.4972 11.1465 28.4243 9.68171C26.56 7.15159 23.7636 5.28729 20.5676 4.62147C15.3742 3.55615 10.1808 5.55362 6.98488 9.68171C11.6456 11.0134 14.1757 11.8123 15.9069 12.2118C15.5074 13.144 14.8416 14.2093 14.0426 15.6741C13.3768 16.8726 12.7109 17.9379 12.1783 18.7369C10.8466 17.4052 8.71601 15.6741 5.3869 12.6113C4.58792 14.4756 4.18842 16.3399 4.32159 18.3374C4.58792 22.5986 6.85171 26.4604 10.314 28.8574C11.912 29.9227 13.7763 30.5885 15.7737 30.8548C14.9747 25.9278 14.8416 23.5308 14.1757 21.7997C15.1079 21.7997 16.3064 21.6665 17.638 21.6665C19.1028 21.6665 20.4345 21.7997 21.3666 21.7997C20.7008 23.5308 20.1681 26.0609 19.236 30.8548C24.4294 30.189 28.4243 27.5257 30.4218 21.9328C31.4871 18.7369 31.2208 15.4078 30.0223 12.6113Z" fill="white"/>
<path fill-rule="evenodd" clip-rule="evenodd" d="M20.0349 16.2067C22.9645 21.2669 23.4972 20.468 17.6379 20.468C11.7787 20.468 12.3114 21.2669 15.241 16.2067C18.1706 11.1465 17.1053 11.1465 20.0349 16.2067Z" fill="white"/>
</svg>
