<svg width="18" height="18" viewBox="0 0 18 18" fill="none" xmlns="http://www.w3.org/2000/svg">
<path d="M14.4277 5.38672H13.5584C13.9789 4.32715 14.3877 2.77039 13.8375 1.54949C13.5131 0.829555 12.8963 0.317547 12.0536 0.0692194C11.8981 0.0231629 11.7363 0 11.5734 0C10.4768 0 9.48457 0.973111 8.03457 3.4712C7.38304 4.5946 6.44531 5.54051 5.7849 6.05063C5.50462 6.26718 5.28063 6.48804 5.09901 6.70539C4.59829 6.02882 3.74856 5.58307 2.78623 5.58307C1.25001 5.58307 0 6.7194 0 8.1159V15.4672C0 16.8639 1.25001 18 2.78623 18C3.79537 18 4.67829 17.5079 5.16715 16.7756C5.82253 17.5103 6.82218 17.9814 7.94153 17.9814H14.7628C17.5796 17.9814 18 16.3288 18 15.3438V8.63464C18.0003 6.84383 16.3977 5.38672 14.4277 5.38672ZM3.79478 15.4672C3.79478 15.9727 3.34235 16.384 2.78653 16.384C2.23041 16.384 1.77799 15.9727 1.77799 15.4672V8.1159C1.77799 7.61036 2.23041 7.19908 2.78653 7.19908C3.34235 7.19908 3.79478 7.61036 3.79478 8.1159V15.4672ZM16.2226 15.3438C16.2226 15.942 16.1177 16.3654 14.7631 16.3654H7.94183C6.95225 16.3654 6.14696 15.6336 6.14696 14.734V8.63464L6.14933 8.60906L6.1431 8.56166C6.14133 8.5358 6.1117 7.91902 6.93595 7.28231C7.72288 6.67415 8.83779 5.55182 9.60693 4.22508C10.8312 2.11617 11.4154 1.70597 11.5739 1.62841C11.8818 1.73291 12.0741 1.89963 12.1923 2.16196C12.5754 3.01199 12.0942 4.64632 11.4211 5.82143L10.7447 7.00247H14.4274C15.4173 7.00247 16.2226 7.73452 16.2226 8.63438V15.3438Z" fill="white"/>
</svg>
