<svg width="18" height="18" viewBox="0 0 18 18" fill="none" xmlns="http://www.w3.org/2000/svg">
<path d="M10.2857 8.53843L11.727 7.09843C11.9693 6.86405 12.294 6.73422 12.6311 6.73691C12.9682 6.7396 13.2908 6.87459 13.5294 7.1128C13.7679 7.35102 13.9034 7.6734 13.9065 8.01051C13.9097 8.34762 13.7803 8.67249 13.5463 8.91514L9.909 12.5524C9.78987 12.6722 9.64824 12.7673 9.49224 12.8322C9.33624 12.8971 9.16895 12.9305 9 12.9305C8.83105 12.9305 8.66376 12.8971 8.50776 12.8322C8.35176 12.7673 8.21013 12.6722 8.091 12.5524L4.45371 8.91514C4.33434 8.7956 4.23969 8.65372 4.17515 8.4976C4.11061 8.34148 4.07745 8.17417 4.07757 8.00523C4.07769 7.8363 4.11108 7.66904 4.17584 7.51301C4.2406 7.35698 4.33546 7.21523 4.455 7.09586C4.57454 6.97649 4.71642 6.88183 4.87254 6.81729C5.02867 6.75275 5.19597 6.71959 5.36491 6.71971C5.53385 6.71983 5.7011 6.75323 5.85714 6.81799C6.01317 6.88274 6.15491 6.9776 6.27429 7.09714L7.71429 8.53843V1.28571C7.71429 0.944722 7.84974 0.617695 8.09086 0.376577C8.33198 0.135459 8.65901 0 9 0C9.34099 0 9.66802 0.135459 9.90914 0.376577C10.1503 0.617695 10.2857 0.944722 10.2857 1.28571V8.53843ZM1.28571 15.4286H16.7143C17.0553 15.4286 17.3823 15.564 17.6234 15.8051C17.8645 16.0463 18 16.3733 18 16.7143C18 17.0553 17.8645 17.3823 17.6234 17.6234C17.3823 17.8645 17.0553 18 16.7143 18H1.28571C0.944722 18 0.617695 17.8645 0.376577 17.6234C0.135459 17.3823 0 17.0553 0 16.7143C0 16.3733 0.135459 16.0463 0.376577 15.8051C0.617695 15.564 0.944722 15.4286 1.28571 15.4286Z" fill="white"/>
</svg>
