<svg width="16" height="16" viewBox="0 0 16 16" fill="none" xmlns="http://www.w3.org/2000/svg">
<path d="M9.14286 3.90261V10.3501C9.14286 10.6532 9.02245 10.9439 8.80812 11.1582C8.59379 11.3725 8.30311 11.4929 8 11.4929C7.6969 11.4929 7.40621 11.3725 7.19188 11.1582C6.97755 10.9439 6.85714 10.6532 6.85714 10.3501V3.90261L5.576 5.1848C5.3614 5.39923 5.07041 5.51964 4.76702 5.51953C4.46364 5.51942 4.17273 5.39881 3.95829 5.18423C3.74384 4.96965 3.62342 4.67867 3.62353 4.37531C3.62364 4.07195 3.74426 3.78106 3.95886 3.56663L7.192 0.336015C7.29789 0.229526 7.42379 0.145018 7.56245 0.0873524C7.70112 0.0296865 7.84982 0 8 0C8.15018 0 8.29888 0.0296865 8.43755 0.0873524C8.57621 0.145018 8.70211 0.229526 8.808 0.336015L12.0411 3.56778C12.1473 3.67403 12.2315 3.80015 12.289 3.93894C12.3464 4.07774 12.376 4.22648 12.3759 4.37669C12.3758 4.5269 12.3462 4.67563 12.2887 4.81438C12.2311 4.95313 12.1468 5.0792 12.0406 5.18537C11.9343 5.29155 11.8082 5.37575 11.6694 5.43319C11.5306 5.49062 11.3818 5.52015 11.2316 5.5201C11.0814 5.52005 10.9326 5.49041 10.7939 5.43288C10.6551 5.37535 10.529 5.29105 10.4229 5.1848L9.14286 3.90261ZM3.42857 6.85782C3.73168 6.85782 4.02237 6.97822 4.23669 7.19253C4.45102 7.40684 4.57143 7.69751 4.57143 8.00059C4.57143 8.30367 4.45102 8.59434 4.23669 8.80865C4.02237 9.02296 3.73168 9.14336 3.42857 9.14336H2.28571V13.7145H13.7143V9.14336H12.5714C12.2683 9.14336 11.9776 9.02296 11.7633 8.80865C11.549 8.59434 11.4286 8.30367 11.4286 8.00059C11.4286 7.69751 11.549 7.40684 11.7633 7.19253C11.9776 6.97822 12.2683 6.85782 12.5714 6.85782H13.7143C14.3205 6.85782 14.9019 7.09862 15.3305 7.52724C15.7592 7.95586 16 8.5372 16 9.14336V13.7145C16 14.3206 15.7592 14.902 15.3305 15.3306C14.9019 15.7592 14.3205 16 13.7143 16H2.28571C1.67951 16 1.09812 15.7592 0.66947 15.3306C0.240816 14.902 0 14.3206 0 13.7145V9.14336C0 8.5372 0.240816 7.95586 0.66947 7.52724C1.09812 7.09862 1.67951 6.85782 2.28571 6.85782H3.42857Z" fill="white"/>
</svg>
