<svg width="113" height="43" viewBox="0 0 113 43" fill="none" xmlns="http://www.w3.org/2000/svg">
<path d="M54.965 42.2178L60.8958 8.85854C66.5485 8.85854 68.3316 9.47851 68.5892 12.0091C68.5892 12.0091 72.3815 10.5949 74.2939 7.72276C66.8304 4.26377 59.3312 4.10777 59.3312 4.10777L54.9554 9.43839L54.9652 9.43772L50.5892 4.10693C50.5892 4.10693 43.0899 4.2631 35.6273 7.72209C37.5383 10.5942 41.3319 12.0084 41.3319 12.0084C41.5908 9.47768 43.3717 8.85771 48.9867 8.85369L54.965 42.2178Z" fill="white" fill-opacity="0.28"/>
<path d="M54.9627 2.56817C60.996 2.52202 67.9015 3.50164 74.971 6.58327C75.9159 4.88236 76.1588 4.13064 76.1588 4.13064C68.4308 1.07275 61.1937 0.0262501 54.9619 0C48.7302 0.0262501 41.4936 1.07291 33.7667 4.13064C33.7667 4.13064 34.1114 5.05658 34.9536 6.58327C42.0217 3.50164 48.9287 2.52202 54.9621 2.56817H54.9627Z" fill="white" fill-opacity="0.28"/>
<path d="M96.4371 15.5204V23.1147H99.2835V18.0584H109.643V23.1147H112.488V15.5335L96.4371 15.5204ZM98.9663 13.0638H109.911C111.431 12.8052 112.562 11.657 112.881 10.5466H95.9972C96.3127 11.6577 97.4599 12.8052 98.9663 13.0638Z" fill="white"/>
<path d="M87.8166 23.1189C89.2517 22.5983 90.0238 21.6979 90.3199 20.6439H77.553L77.5615 10.5526L74.6997 10.5595V23.1189H87.8166ZM53.4179 13.0292H63.5259C65.0498 12.6504 66.3294 11.6571 66.6413 10.556H50.584V17.978H63.726V20.5826L53.4175 20.5899C51.8021 20.9753 50.4321 21.9034 49.7488 23.1293L50.584 23.1161H66.5498V15.5107H53.4175V13.0292" fill="white"/>
<path d="M28.4644 13.0535H39.4057C40.9279 12.794 42.0593 11.6468 42.3764 10.5353H25.4937C25.8088 11.6468 26.9568 12.794 28.4644 13.0535ZM28.4644 18.0172H39.4057C40.9279 17.7604 42.0593 16.6122 42.3764 15.5H25.4937C25.8088 16.6129 26.9568 17.7604 28.4644 18.0172ZM28.4644 23.1177H39.4057C40.9279 22.8588 42.0593 21.711 42.3764 20.6002H25.4937C25.8088 21.712 26.9568 22.8588 28.4644 23.1177Z" fill="white"/>
<path d="M0 10.5668C0.328914 11.6644 1.44001 12.7859 2.96347 13.0674H7.56908L7.80402 13.1467V23.0904H10.68V13.1467L10.9417 13.0674H15.5513C17.0922 12.7277 18.1786 11.6644 18.5018 10.5668V10.5425H0V10.5668Z" fill="white"/>
</svg>
